<svg xmlns="http://www.w3.org/2000/svg" viewBox="0 0 983.4 312.78"><defs><style>.cls-1{fill:#ec6062;}</style></defs><g id="navn-2" data-name="navn"><path class="cls-1" d="M181.57,16.2s33.62,43.28,34.62,44.94,0,6,0,6-7,13-6.66,20.31-.66,9.66,21,36.29,25,29.3,25,29.3l3.33,4s1-5.66,3-6.65-7.65-12-7.65-12L234.5,107.75s-6.65-15.65,7-7c11.32,14,27.3,37.29,27.3,37.29l2.66,4.33s2.66-4,4.66-5-13.65-22.6-13.65-22.6S250.15,99.1,249.82,95.43s1.33-14.65,11-4c9,12.65,26,39.26,26,39.26l2.33,4s2.34-3,4.67-4-20.31-41.59-20.31-41.59-2.67-15-15-24.64c-11.66-6.33-28.3-5.33-28.3-5.33l-5.33-2.33L199.21,16.2Z"/><path class="cls-1" d="M54.07,159.82A48.61,48.61,0,0,1,72.7,141.19a52.82,52.82,0,0,1,26.47-6.67q17.16,0,30.07,8.8a46.06,46.06,0,0,1,18,24.35H123.67a24.48,24.48,0,0,0-9.9-11A29,29,0,0,0,99,153a30.28,30.28,0,0,0-15.91,4.18A28.55,28.55,0,0,0,72.25,169a43,43,0,0,0,0,35.72,28.44,28.44,0,0,0,10.86,11.88A30.37,30.37,0,0,0,99,220.77,28.67,28.67,0,0,0,113.77,217a25,25,0,0,0,9.9-11.08h23.61q-5.13,15.7-18,24.43T99.17,239.1a52.82,52.82,0,0,1-26.47-6.67,48.7,48.7,0,0,1-18.63-18.56,57,57,0,0,1,0-54.05Z"/><path class="cls-1" d="M179.85,234.34a37.5,37.5,0,0,1-14.75-14.75,44.12,44.12,0,0,1-5.35-22,43.21,43.21,0,0,1,5.5-22,38.19,38.19,0,0,1,15-14.74,46,46,0,0,1,42.53,0,38.19,38.19,0,0,1,15,14.74,43.21,43.21,0,0,1,5.5,22,42.26,42.26,0,0,1-5.65,22,39.08,39.08,0,0,1-15.25,14.75,44.39,44.39,0,0,1-21.49,5.2A42.76,42.76,0,0,1,179.85,234.34Zm31.61-15.4a19.72,19.72,0,0,0,7.84-8.15,27.34,27.34,0,0,0,2.94-13.2q0-11.58-6.09-17.82a20,20,0,0,0-14.89-6.23,19.53,19.53,0,0,0-14.74,6.23q-5.94,6.24-5.94,17.82t5.79,17.82a19.07,19.07,0,0,0,14.6,6.24A21.38,21.38,0,0,0,211.46,218.94Z"/><path class="cls-1" d="M273.43,208.91a37.47,37.47,0,0,1-14.75-14.74,44.17,44.17,0,0,1-5.35-22,43.25,43.25,0,0,1,5.5-22,38.33,38.33,0,0,1,15-14.74,46.08,46.08,0,0,1,42.53,0,38.33,38.33,0,0,1,15,14.74,43.25,43.25,0,0,1,5.5,22,42.31,42.31,0,0,1-5.65,22A39.05,39.05,0,0,1,316,208.91a44.4,44.4,0,0,1-21.49,5.21A42.77,42.77,0,0,1,273.43,208.91ZM305,193.51a19.7,19.7,0,0,0,7.84-8.14,27.39,27.39,0,0,0,2.94-13.2q0-11.59-6.09-17.83a20,20,0,0,0-14.89-6.23,19.56,19.56,0,0,0-14.74,6.23q-5.94,6.24-5.94,17.83T280,190a19.08,19.08,0,0,0,14.6,6.23A21.38,21.38,0,0,0,305,193.51Z"/><path class="cls-1" d="M400.16,238.22l-27.58-34.61v34.61H352.05V129.68h20.53v61.75L399.87,157h26.69l-35.79,40.78,36.08,40.48Z"/><path class="cls-1" d="M439.1,143.83a12,12,0,0,1,0-17.16,13.52,13.52,0,0,1,18,0,12,12,0,0,1,0,17.16,13.52,13.52,0,0,1-18,0ZM458.24,157v81.26H437.71V157Z"/><path class="cls-1" d="M547,165q8.94,9.16,9,25.59v47.67H535.4V193.34q0-9.69-4.84-14.89t-13.2-5.21q-8.52,0-13.42,5.21T499,193.34v44.88H478.49V157H499v10.12a28.49,28.49,0,0,1,10.49-8.29,32.49,32.49,0,0,1,14-3Q538,155.79,547,165Z"/><path class="cls-1" d="M623.26,159.23a29.3,29.3,0,0,1,10.85,9.32V157H654.8v81.85A43.63,43.63,0,0,1,650.25,259a33.79,33.79,0,0,1-13.64,14.08q-9.09,5.2-22,5.21-17.31,0-28.39-8.07a29.92,29.92,0,0,1-12.54-22h20.39a15.21,15.21,0,0,0,7,8.87,24.26,24.26,0,0,0,13,3.3q8.94,0,14.52-5.35t5.57-16.21V226.2a31.12,31.12,0,0,1-10.92,9.53,32.65,32.65,0,0,1-15.92,3.81,34.9,34.9,0,0,1-18.77-5.28,36.73,36.73,0,0,1-13.43-14.89,47.85,47.85,0,0,1-4.91-22.07,47.12,47.12,0,0,1,4.91-21.86,36.16,36.16,0,0,1,13.35-14.67,35.59,35.59,0,0,1,18.85-5.13A34.2,34.2,0,0,1,623.26,159.23Zm7.92,25.53a20.77,20.77,0,0,0-7.92-8.22,21.22,21.22,0,0,0-10.71-2.86A20.79,20.79,0,0,0,602,176.47a21,21,0,0,0-7.85,8.14,25.56,25.56,0,0,0-3,12.69,26.35,26.35,0,0,0,3,12.83,21.75,21.75,0,0,0,7.92,8.44,20.11,20.11,0,0,0,10.49,2.93,21.12,21.12,0,0,0,10.71-2.86,20.75,20.75,0,0,0,7.92-8.21,29.58,29.58,0,0,0,0-25.67Z"/><path class="cls-1" d="M737.14,113.68h.61A3.61,3.61,0,0,1,741,115a5.11,5.11,0,0,1,.93,3,4.82,4.82,0,0,1-1,3,4,4,0,0,1-2.89,1.55q-5.36.4-10.3.92c-3.29.35-6.46.72-9.47,1.14a91.63,91.63,0,0,1,0,9.27q-.21,8.44-.73,20.7T716.23,181q-.72,14.22-1.24,26.57t-.92,20.91c-.28,5.7-.42,8.9-.42,9.58a1.85,1.85,0,0,1-1.23,1.65,6.44,6.44,0,0,1-2.89.62,13.17,13.17,0,0,1-4.84-.93c-1.58-.62-2.51-1.41-2.78-2.37a288.69,288.69,0,0,1-2.78-32.75q-.51-17.1,0-32.55t1.65-27.5q1.13-12.06,2-17.41c-2.2.41-4.16.76-5.88,1s-3.12.55-4.22.83c-1.37.27-2.61.55-3.71.82h-1A3.54,3.54,0,0,1,685,128.3a5.44,5.44,0,0,1-1.24-2.88,5.85,5.85,0,0,1,.42-3.09,3.11,3.11,0,0,1,2.26-1.85q7-1.24,15-2.48c5.36-.82,10.43-1.54,15.24-2.16s9.07-1.1,12.78-1.44Z"/><path class="cls-1" d="M770.71,198.76a1.63,1.63,0,0,1,1.86-1.45,2.9,2.9,0,0,1,1.95.83,2,2,0,0,1,.52,2.26A210.66,210.66,0,0,1,767,220q-2.26,5.16-3.91,8.24a51.91,51.91,0,0,1-3.4,5.57,27.84,27.84,0,0,1-3.5,4.12,5.07,5.07,0,0,1-3.4,1.64,13.57,13.57,0,0,1-8.75-2.88,19.79,19.79,0,0,1-5.77-8,47.84,47.84,0,0,1-3.09-12.16,116.15,116.15,0,0,1-.93-15.24,96.5,96.5,0,0,1,.72-13,52,52,0,0,1,1.13-6.39,4.08,4.08,0,0,1,2.89-2.78,13.4,13.4,0,0,1,4.74-.92,11.76,11.76,0,0,1,5.35,1.13c1.51.75,2.27,1.48,2.27,2.16,0,.41-.1,1.48-.31,3.19s-.45,3.85-.72,6.39-.52,5.36-.72,8.45-.31,6.21-.31,9.37a68.94,68.94,0,0,0,.62,10.3,26.5,26.5,0,0,0,1.54,6.08,7.6,7.6,0,0,0,2,3,3,3,0,0,0,1.65.83q1.85,0,4.43-4.74t5.25-10.51Q767.62,207.21,770.71,198.76ZM747,168.89a8,8,0,0,1-4.43-1.14,9,9,0,0,1-2.78-2.78,10.89,10.89,0,0,1-1.44-3.5,14.44,14.44,0,0,1-.41-3.09,7.32,7.32,0,0,1,2.06-4.84q2.06-2.37,7.41-2.37t7.52,2.06a6.79,6.79,0,0,1,2.17,5.15,9.37,9.37,0,0,1-.62,3,14.35,14.35,0,0,1-1.86,3.5,9.74,9.74,0,0,1-3.19,2.88A8.62,8.62,0,0,1,747,168.89Z"/><path class="cls-1" d="M871,198.76a2.13,2.13,0,0,1,2.06-1.45,2.57,2.57,0,0,1,1.86.83,2.17,2.17,0,0,1,.41,2.26q-5.57,14.22-11.12,25.34c-2.2,4.53-4.09,8.11-5.67,10.71s-3.19,5-4.84,7.21a39.86,39.86,0,0,1-4.84,5.46,7,7,0,0,1-4.64,2.17c-3.57,0-6.49-1.83-8.75-5.46A23.83,23.83,0,0,1,832.1,233a127.6,127.6,0,0,1,.82-13.29q.83-7.72,1.86-14.83c.68-4.74,1.26-8.78,1.75-12.15s.65-5.05.51-5.05-.92,1.21-1.95,3.61-2.27,5.39-3.71,9-3,7.41-4.53,11.53-3.13,8-4.64,11.54-2.88,6.56-4.12,9-2.2,3.61-2.88,3.61a7.21,7.21,0,0,1-2.89.41,18.49,18.49,0,0,1-5.46-.93,4.38,4.38,0,0,1-3.4-3.6,59.38,59.38,0,0,1-.51-8q-.11-5.76-.21-11.84t-.1-10.82c0-3.16-.14-4.74-.41-4.74s-.82,1.34-2.06,4-2.68,6-4.33,10.09-3.29,8.38-4.94,13A132.35,132.35,0,0,0,787,236a8.27,8.27,0,0,0,.2,2.27c0,.69-.48,1.2-1.44,1.54a11.29,11.29,0,0,1-3.71.52,19.33,19.33,0,0,1-5.25-.72c-1.72-.48-2.72-1.2-3-2.17a57.84,57.84,0,0,1-3.09-16.58q-.62-10-.31-19.57c.21-6.39.58-12,1.14-16.79s1-7.55,1.44-8.24c1.09-1.23,2.95-1.85,5.56-1.85a19.86,19.86,0,0,1,7.21,1.44q3.71,1.44,3.5,3.71-1,13.18-1.54,22.55t-.93,15.76q2.26-5.35,4.74-10.71t4.63-9.78Q798.31,193,800,190a21.26,21.26,0,0,1,2.27-3.6q1.23-1.25,4.94-1.24a17.65,17.65,0,0,1,5,.72,5.74,5.74,0,0,1,3.29,2c.28.41.48,1.75.62,4s.27,5,.41,8.24.21,6.7.21,10.41-.07,7.21-.21,10.5l5.46-13.39q3.2-7.81,6.28-14.93c2.07-4.74,3.88-8.86,5.46-12.36a34.66,34.66,0,0,1,3-5.87c.69-.69,2.06-1,4.12-1a22.23,22.23,0,0,1,7,1.23q3.72,1.24,4.54,3.51.62,1.44.31,6.48t-.83,11.75q-.51,6.69-1.34,14T849.09,224q-.51,6.28-.82,10.3c-.21,2.68-.1,4,.31,4,.82,0,1.78-.58,2.88-1.75a29.87,29.87,0,0,0,3.4-4.54c1.17-1.85,2.4-3.94,3.71-6.28s2.57-4.74,3.81-7.21Q866.51,209.88,871,198.76Z"/><path class="cls-1" d="M919.24,198.76a2.12,2.12,0,0,1,2.06-1.45,2.57,2.57,0,0,1,1.85.83,2.13,2.13,0,0,1,.41,2.26A200.84,200.84,0,0,1,914.29,220q-2.88,5.16-5,8.24a38.53,38.53,0,0,1-4.74,5.57,31.83,31.83,0,0,1-5.26,4.12,10.43,10.43,0,0,1-5.56,1.64,22.34,22.34,0,0,1-9.27-1.95A24.31,24.31,0,0,1,876.7,232a25.73,25.73,0,0,1-5.36-8.85,33.89,33.89,0,0,1-2-11.85,48,48,0,0,1,1.75-12.87,43.31,43.31,0,0,1,4.74-11.13,26.67,26.67,0,0,1,7.21-7.83,15.63,15.63,0,0,1,9.17-3,23.64,23.64,0,0,1,3.61.41,18.66,18.66,0,0,1,4.73,1.54,12,12,0,0,1,4.12,3.3,8.71,8.71,0,0,1,1.75,5.67q0,6.18-5.56,11.53a26.83,26.83,0,0,1-13.18,7,18.2,18.2,0,0,0-.21,3.29q0,10.71,3.3,15.35c2.19,3.09,4.12,4.63,5.77,4.63,2.74,0,5.46-1.57,8.13-4.73A69.5,69.5,0,0,0,912,214,161,161,0,0,0,919.24,198.76Zm-24.31-17.1q-1,0-3.3,5.56a60.75,60.75,0,0,0-3.5,13.6,32.51,32.51,0,0,0,5.87-6.29,12.46,12.46,0,0,0,2.78-7.31,18,18,0,0,0-.41-3.61Q896,181.66,894.93,181.66Z"/></g></svg>