<svg xmlns="http://www.w3.org/2000/svg" viewBox="0 0 361.78 210.63"><defs><style>.cls-1,.cls-2,.cls-3{fill:#ec6062;}.cls-2{font-size:75px;font-family:Poppins-SemiBold, Poppins;font-weight:600;}.cls-3{font-size:97px;font-family:StrawberryBlossom, Strawberry Blossom;}</style></defs><g id="navn-2" data-name="navn"><path class="cls-1" d="M146.66,57.49c.62,7.26,1.05,14.84,1.36,22.13l-1.47-.06L130.64,79c-9.34-.26-22.5-.67-31.69-.47-4.62.22-9.41,0-13.79,1.45a.45.45,0,0,0-.17.09.21.21,0,0,1-.12,0l-4.11.58c0-1.61.17-8.88.22-10.63l.11-8.44C82.33,54.76,89.93,52.45,96,52c8.23-.64,16.72,1.09,24.66,3.09,2.64.74,5.26,1.56,7.86,2.38-2.72-.36-5.41-.78-8.09-1.17-8.77-1-27.37-3.43-33.71,3.42a4.7,4.7,0,0,0-1.15,2.73c0,.48.07,1,.08,1.42.06,1.33.11,4.84.13,6.21v8.2l-4.06-1.92c2.59-1.91,6-2.06,9-2.43a189.71,189.71,0,0,1,24.2,0c10.66.58,21.26,1.59,31.84,3l-1.43,1.31c.33-6.82.74-14,1.32-20.76Z"/><path class="cls-1" d="M105.34,68.3c11.54-5.53,30.68-7,41.32,1.08-13.94-1.41-27.38.25-41.32-1.08Z"/><path class="cls-1" d="M78.52,58.35c-6.92-1.44-14.06-5.21-17.76-11.64-3.59-6.68-3.13-17,3.53-21.78,8-5.36,20.22-3.31,29.15-1.72A43.56,43.56,0,0,1,107,28.49c4.21,2.47,7.62,5.55,11.75,7.1,4.31,1.6,8.73,3.16,13.18,4.59A103.45,103.45,0,0,1,118,37.93c-6.85-1.8-12.29-6.61-19-8.5A73.59,73.59,0,0,0,82.4,26.66c-5.1-.25-11-.58-15.41,2.15-2.89,1.78-4.12,5.51-4.35,8.8-1.4,9.78,7.63,17,15.88,20.74Z"/><path class="cls-1" d="M143.2,53.5c5.37-2.66,11.38-5.2,15-9.91,4.06-5.48,6.48-8.08,3-14.76a14.32,14.32,0,0,0-11.07-7.61c-6.71-.93-13.55-1.6-20.15.09-3.94,1-7.57,2.9-11.28,4.57s-7.66,3.41-11.6,4.92c5.14-3.71,10.39-7.1,15.77-10.43,8.73-5.35,18.88-5.4,28.67-4a18.58,18.58,0,0,1,15.7,17.23c.37,4.89-3.55,8.8-6.5,12-4.7,4.81-11.34,6.58-17.59,7.88Z"/><text class="cls-2" transform="translate(14.3 131.08)">Cooking</text><text class="cls-3" transform="translate(212.58 184.9)">Time</text></g></svg>