<svg xmlns="http://www.w3.org/2000/svg" viewBox="0 0 361.78 210.63"><defs><style>.cls-1{fill:#ec6062;}</style></defs><g id="navn-2" data-name="navn"><path class="cls-1" d="M92,15.13s17.2,22.13,17.71,23,0,3.06,0,3.06-3.58,6.64-3.41,10.39-.34,4.93,10.73,18.55,12.76,15,12.76,15l1.71,2s.51-2.89,1.53-3.4-3.92-6.13-3.92-6.13L119,61.94s-3.41-8,3.57-3.57c5.79,7.16,14,19.06,14,19.06l1.36,2.21a9.84,9.84,0,0,1,2.39-2.55c1-.51-7-11.56-7-11.56s-6.3-8-6.47-9.89.68-7.49,5.62-2c4.59,6.47,13.27,20.08,13.27,20.08l1.2,2a7.65,7.65,0,0,1,2.38-2c1.19-.5-10.38-21.27-10.38-21.27a22.74,22.74,0,0,0-7.67-12.6c-6-3.23-14.46-2.72-14.46-2.72l-2.73-1.19L101,15.13Z"/><path class="cls-1" d="M26.77,88.56A24.88,24.88,0,0,1,36.29,79a27,27,0,0,1,13.54-3.41,26.65,26.65,0,0,1,15.38,4.5,23.52,23.52,0,0,1,9.22,12.45H62.36A12.51,12.51,0,0,0,57.29,87a14.81,14.81,0,0,0-7.53-1.87,15.55,15.55,0,0,0-8.14,2.13,14.56,14.56,0,0,0-5.55,6,21.94,21.94,0,0,0,0,18.26,14.49,14.49,0,0,0,5.55,6.08,15.55,15.55,0,0,0,8.14,2.14,14.54,14.54,0,0,0,7.53-1.92,12.69,12.69,0,0,0,5.07-5.66H74.43a23.41,23.41,0,0,1-9.19,12.49,26.76,26.76,0,0,1-15.41,4.46,27.1,27.1,0,0,1-13.54-3.41,25,25,0,0,1-9.52-9.49,29.11,29.11,0,0,1,0-27.64Z"/><path class="cls-1" d="M91.08,126.66a19.16,19.16,0,0,1-7.54-7.53,22.64,22.64,0,0,1-2.73-11.25,22.06,22.06,0,0,1,2.81-11.25,19.49,19.49,0,0,1,7.69-7.54,23.56,23.56,0,0,1,21.75,0,19.47,19.47,0,0,1,7.68,7.54,22.06,22.06,0,0,1,2.82,11.25,21.7,21.7,0,0,1-2.89,11.25,20,20,0,0,1-7.8,7.53,22.65,22.65,0,0,1-11,2.67A21.84,21.84,0,0,1,91.08,126.66Zm16.16-7.87a10.09,10.09,0,0,0,4-4.16,14,14,0,0,0,1.5-6.75q0-5.92-3.12-9.12A10.23,10.23,0,0,0,102,95.58a10,10,0,0,0-7.54,3.18q-3,3.19-3,9.12t3,9.11a9.76,9.76,0,0,0,7.46,3.19A11,11,0,0,0,107.24,118.79Z"/><path class="cls-1" d="M138.93,113.66a19.16,19.16,0,0,1-7.54-7.53,22.64,22.64,0,0,1-2.74-11.25,22.06,22.06,0,0,1,2.82-11.25,19.47,19.47,0,0,1,7.68-7.54,23.56,23.56,0,0,1,21.75,0,19.49,19.49,0,0,1,7.69,7.54,22.06,22.06,0,0,1,2.81,11.25,21.7,21.7,0,0,1-2.88,11.25,20,20,0,0,1-7.8,7.53,22.65,22.65,0,0,1-11,2.67A21.84,21.84,0,0,1,138.93,113.66Zm16.16-7.87a10.07,10.07,0,0,0,4-4.16,14,14,0,0,0,1.5-6.75q0-5.92-3.11-9.12a10.23,10.23,0,0,0-7.61-3.18,10,10,0,0,0-7.54,3.18q-3,3.19-3,9.12t3,9.11a9.76,9.76,0,0,0,7.46,3.19A11,11,0,0,0,155.09,105.79Z"/><path class="cls-1" d="M203.73,128.65,189.63,111v17.7h-10.5V73.15h10.5v31.58l14-17.63h13.65L198.93,108l18.45,20.7Z"/><path class="cls-1" d="M223.64,80.39a6.16,6.16,0,0,1,0-8.78,6.93,6.93,0,0,1,9.23,0,6.18,6.18,0,0,1,0,8.78,6.93,6.93,0,0,1-9.23,0Zm9.79,6.71v41.55h-10.5V87.1Z"/><path class="cls-1" d="M278.8,91.19q4.57,4.68,4.58,13.09v24.37h-10.5v-23q0-5-2.48-7.61a8.75,8.75,0,0,0-6.75-2.66,9,9,0,0,0-6.86,2.66c-1.68,1.77-2.51,4.31-2.51,7.61v23h-10.5V87.1h10.5v5.18A14.49,14.49,0,0,1,259.64,88a16.52,16.52,0,0,1,7.16-1.54Q274.23,86.5,278.8,91.19Z"/><path class="cls-1" d="M317.8,88.26A15.12,15.12,0,0,1,323.35,93V87.1h10.58V129a22.27,22.27,0,0,1-2.33,10.31,17.19,17.19,0,0,1-7,7.2,22.25,22.25,0,0,1-11.25,2.67q-8.85,0-14.52-4.13a15.3,15.3,0,0,1-6.41-11.25h10.43a7.76,7.76,0,0,0,3.56,4.54,12.45,12.45,0,0,0,6.64,1.69,10.28,10.28,0,0,0,7.42-2.74q2.85-2.75,2.85-8.29V122.5a16,16,0,0,1-5.58,4.88,16.69,16.69,0,0,1-8.14,2,17.85,17.85,0,0,1-9.6-2.7,18.84,18.84,0,0,1-6.87-7.62,24.46,24.46,0,0,1-2.51-11.28,24.13,24.13,0,0,1,2.51-11.18,18.43,18.43,0,0,1,6.83-7.5,18.16,18.16,0,0,1,9.64-2.62A17.48,17.48,0,0,1,317.8,88.26Zm4.05,13a10.64,10.64,0,0,0-4.05-4.2,10.85,10.85,0,0,0-5.47-1.46,10.59,10.59,0,0,0-9.42,5.59,13.09,13.09,0,0,0-1.53,6.49,13.53,13.53,0,0,0,1.53,6.56,11.17,11.17,0,0,0,4,4.31,10.33,10.33,0,0,0,5.37,1.5,10.85,10.85,0,0,0,5.47-1.46,10.64,10.64,0,0,0,4.05-4.2,15.12,15.12,0,0,0,0-13.13Z"/><path class="cls-1" d="M240.56,130.79h.29a1.71,1.71,0,0,1,1.51.63,2.41,2.41,0,0,1,.43,1.4,2.27,2.27,0,0,1-.48,1.41A1.94,1.94,0,0,1,241,135c-1.68.13-3.3.27-4.85.43s-3,.34-4.46.54c.06.26.06-3.29,0-.64s-.18,5.9-.34,9.75-.36,8-.58,12.47-.43,8.63-.59,12.51-.3,7.16-.43,9.84-.2,4.19-.2,4.51a.86.86,0,0,1-.58.78,2.93,2.93,0,0,1-1.36.29,6.27,6.27,0,0,1-2.28-.43c-.74-.3-1.18-.67-1.31-1.12a138.41,138.41,0,0,1-1.31-15.42q-.24-8.06,0-15.33c.17-4.85.45-9.16.78-12.95a7.65,7.65,0,0,0-.08-3.19,16.65,16.65,0,0,1-1.76.48c-.81.13-1.47.26-2,.39s-1.23.26-1.75.39h-.48a1.69,1.69,0,0,1-1.36-.59,2.53,2.53,0,0,1-.58-1.35,2.76,2.76,0,0,1,.19-1.46,1.49,1.49,0,0,1,1.07-.87q3.3-.59,7.08-1.17t7.18-1c2.26-.3,4.27-.52,6-.68Z"/><path class="cls-1" d="M256.37,165.85a.77.77,0,0,1,.87-.68,1.37,1.37,0,0,1,.93.39,1,1,0,0,1,.24,1.06q-1.85,5.15-3.78,9.22c-.72,1.62-1.33,2.91-1.85,3.88a25.2,25.2,0,0,1-1.6,2.62,13.34,13.34,0,0,1-1.65,1.94,2.37,2.37,0,0,1-1.6.77,6.42,6.42,0,0,1-4.12-1.35,9.43,9.43,0,0,1-2.72-3.79,22.62,22.62,0,0,1-1.45-5.72,55,55,0,0,1-.44-7.18,46.55,46.55,0,0,1,.34-6.11,22.42,22.42,0,0,1,.54-3,1.91,1.91,0,0,1,1.35-1.31,6.37,6.37,0,0,1,2.23-.43,5.72,5.72,0,0,1,2.53.53c.71.36,1.06.7,1.06,1s0,.7-.14,1.5-.21,1.81-.34,3-.24,2.52-.34,4-.15,2.92-.15,4.41a32.89,32.89,0,0,0,.29,4.85,12.83,12.83,0,0,0,.73,2.86,3.68,3.68,0,0,0,.92,1.41,1.46,1.46,0,0,0,.78.39c.58,0,1.28-.75,2.09-2.23s1.63-3.14,2.47-4.95Q254.91,169.83,256.37,165.85Zm-11.15-14.07a3.75,3.75,0,0,1-2.09-.53,4.2,4.2,0,0,1-1.31-1.31,5.38,5.38,0,0,1-.68-1.65,6.86,6.86,0,0,1-.19-1.45,3.44,3.44,0,0,1,1-2.28c.64-.75,1.81-1.12,3.49-1.12a5.13,5.13,0,0,1,3.54,1,3.22,3.22,0,0,1,1,2.43,4.47,4.47,0,0,1-.29,1.4,7.31,7.31,0,0,1-.87,1.65,4.72,4.72,0,0,1-1.51,1.36A4,4,0,0,1,245.22,151.78Z"/><path class="cls-1" d="M303.61,165.85a1,1,0,0,1,1-.68,1.2,1.2,0,0,1,.87.39,1,1,0,0,1,.2,1.06c-1.75,4.47-3.5,8.44-5.24,11.94q-1.56,3.19-2.67,5a38.42,38.42,0,0,1-2.28,3.39,17.6,17.6,0,0,1-2.28,2.57,3.29,3.29,0,0,1-2.18,1,4.72,4.72,0,0,1-4.12-2.57,11.19,11.19,0,0,1-1.6-6.06,62.54,62.54,0,0,1,.38-6.26q.39-3.63.88-7t.82-5.72a11.66,11.66,0,0,0,.25-2.38c-.14,0-.44.57-.93,1.7s-1.06,2.54-1.74,4.22S283.55,170,282.8,172s-1.47,3.75-2.18,5.43-1.36,3.09-1.94,4.22-1,1.7-1.36,1.7a3.34,3.34,0,0,1-1.36.19,8.79,8.79,0,0,1-2.57-.43,2.08,2.08,0,0,1-1.6-1.7,27,27,0,0,1-.24-3.79c0-1.8-.06-3.66-.1-5.57s0-3.61,0-5.1-.07-2.23-.2-2.23a10.24,10.24,0,0,0-1,1.9q-.87,1.89-2,4.75c-.77,1.91-1.55,3.94-2.32,6.11a62.27,62.27,0,0,0-1.85,6,4,4,0,0,0,.1,1.06c0,.33-.23.57-.68.73a5.28,5.28,0,0,1-1.74.24,9,9,0,0,1-2.48-.34c-.81-.22-1.28-.56-1.4-1a27.3,27.3,0,0,1-1.46-7.8q-.28-4.71-.14-9.22t.53-7.9a16.19,16.19,0,0,1,.68-3.88,3.32,3.32,0,0,1,2.62-.88,9.35,9.35,0,0,1,3.39.68c1.17.45,1.71,1,1.65,1.75-.32,4.14-.57,7.68-.73,10.62s-.3,5.42-.43,7.42q1.06-2.52,2.23-5c.77-1.69,1.5-3.22,2.18-4.61s1.28-2.56,1.8-3.49a9.74,9.74,0,0,1,1.06-1.7,3.38,3.38,0,0,1,2.33-.58,8.16,8.16,0,0,1,2.33.34,2.69,2.69,0,0,1,1.55.92,5.38,5.38,0,0,1,.29,1.89c.06,1.07.13,2.36.19,3.88s.1,3.15.1,4.9,0,3.39-.1,4.94c.72-1.74,1.57-3.84,2.58-6.3s2-4.8,2.95-7,1.83-4.17,2.57-5.82a17.51,17.51,0,0,1,1.41-2.77,2.82,2.82,0,0,1,1.94-.48,10.44,10.44,0,0,1,3.3.58,3.1,3.1,0,0,1,2.13,1.65,8.17,8.17,0,0,1,.15,3c-.1,1.59-.23,3.43-.39,5.53s-.37,4.3-.63,6.6-.47,4.43-.63,6.4-.29,3.59-.39,4.85-.05,1.89.15,1.89a2.11,2.11,0,0,0,1.36-.82,14.32,14.32,0,0,0,1.59-2.14c.55-.87,1.14-1.85,1.75-2.95s1.21-2.24,1.8-3.4Q301.47,171.08,303.61,165.85Z"/><path class="cls-1" d="M326.31,165.85a1,1,0,0,1,1-.68,1.2,1.2,0,0,1,.87.39,1,1,0,0,1,.19,1.06,94.4,94.4,0,0,1-4.36,9.22q-1.37,2.43-2.38,3.88a17.8,17.8,0,0,1-2.23,2.62,15.31,15.31,0,0,1-2.47,1.94,4.91,4.91,0,0,1-2.62.77,10.41,10.41,0,0,1-4.37-.92,11.25,11.25,0,0,1-3.63-2.62,12.23,12.23,0,0,1-2.53-4.17,16,16,0,0,1-.92-5.57,22.56,22.56,0,0,1,.83-6.07,20.28,20.28,0,0,1,2.23-5.24,12.52,12.52,0,0,1,3.39-3.68,7.34,7.34,0,0,1,4.32-1.41,10.94,10.94,0,0,1,1.7.2,8.91,8.91,0,0,1,2.23.72,5.67,5.67,0,0,1,1.94,1.56,4.07,4.07,0,0,1,.82,2.66,7.5,7.5,0,0,1-2.62,5.44,12.52,12.52,0,0,1-6.2,3.29,8.32,8.32,0,0,0-.1,1.56q0,5,1.55,7.22c1,1.46,1.94,2.18,2.72,2.18q1.94,0,3.83-2.23a32.07,32.07,0,0,0,3.44-4.94A74.65,74.65,0,0,0,326.31,165.85Zm-11.45-8c-.32,0-.84.87-1.55,2.62a28.78,28.78,0,0,0-1.65,6.4,15.22,15.22,0,0,0,2.76-3,5.85,5.85,0,0,0,1.31-3.44,8.19,8.19,0,0,0-.19-1.7C315.41,158.1,315.18,157.8,314.86,157.8Z"/></g></svg>